<svg width="320" height="220" viewBox="0 0 320 220" fill="none" xmlns="http://www.w3.org/2000/svg" role="img" aria-label="Admin illustration">
  <defs>
    <linearGradient id="adminBg" x1="20" y1="10" x2="300" y2="210" gradientUnits="userSpaceOnUse">
      <stop stop-color="#EAF2FF"/>
      <stop offset="1" stop-color="#BFD4FF"/>
    </linearGradient>
    <linearGradient id="adminPanel" x1="68" y1="56" x2="246" y2="176" gradientUnits="userSpaceOnUse">
      <stop stop-color="#FFFFFF"/>
      <stop offset="1" stop-color="#EEF4FF"/>
    </linearGradient>
    <linearGradient id="adminAccent" x1="84" y1="64" x2="214" y2="164" gradientUnits="userSpaceOnUse">
      <stop stop-color="#2B73F0"/>
      <stop offset="1" stop-color="#1B57D4"/>
    </linearGradient>
  </defs>
  <rect x="0" y="0" width="320" height="220" rx="30" fill="url(#adminBg)"/>
  <circle cx="260" cy="54" r="46" fill="#DCE8FF"/>
  <circle cx="56" cy="172" r="34" fill="#D7F4E8"/>
  <rect x="54" y="38" width="212" height="126" rx="22" fill="url(#adminPanel)" stroke="#9EB9EE" stroke-opacity="0.36"/>
  <rect x="72" y="56" width="76" height="18" rx="9" fill="#DCE8FF"/>
  <rect x="72" y="86" width="122" height="14" rx="7" fill="#DDE6F7"/>
  <rect x="72" y="110" width="156" height="14" rx="7" fill="#DDE6F7"/>
  <rect x="72" y="134" width="96" height="14" rx="7" fill="#DDE6F7"/>
  <rect x="216" y="78" width="28" height="54" rx="10" fill="url(#adminAccent)"/>
  <rect x="186" y="90" width="22" height="42" rx="10" fill="#58A5FF"/>
  <rect x="158" y="102" width="18" height="30" rx="9" fill="#9CC2FF"/>
  <path d="M176 172C176 158.745 186.745 148 200 148H236C249.255 148 260 158.745 260 172V176H176V172Z" fill="#1B57D4" fill-opacity="0.14"/>
  <circle cx="199" cy="168" r="14" fill="#2B73F0"/>
  <circle cx="230" cy="164" r="11" fill="#8DB3FF"/>
  <path d="M192 168C194.5 162.5 203.5 162.5 206 168" stroke="#FFFFFF" stroke-width="3" stroke-linecap="round"/>
  <path d="M224 164C226 160.5 233 160.5 235 164" stroke="#FFFFFF" stroke-width="3" stroke-linecap="round"/>
  <path d="M94 176H140" stroke="#0F2F68" stroke-opacity="0.35" stroke-width="10" stroke-linecap="round"/>
  <circle cx="92" cy="82" r="18" fill="#2B73F0"/>
  <circle cx="122" cy="82" r="12" fill="#6CA0FF"/>
  <circle cx="142" cy="82" r="8" fill="#9FC0FF"/>
</svg>
